<?xml version="1.0" encoding="utf-8"?>
<!-- Generator: Adobe Illustrator 15.0.0, SVG Export Plug-In . SVG Version: 6.00 Build 0)  -->
<!DOCTYPE svg PUBLIC "-//W3C//DTD SVG 1.1//EN" "http://www.w3.org/Graphics/SVG/1.1/DTD/svg11.dtd">
<svg version="1.1" id="Layer_1" xmlns="http://www.w3.org/2000/svg" xmlns:xlink="http://www.w3.org/1999/xlink" x="0px" y="0px"
	 width="265.618px" height="69.923px" viewBox="0 0 265.618 69.923" enable-background="new 0 0 265.618 69.923"
	 xml:space="preserve">
<g>
	<g>
		<path fill="#7F3F98" d="M211.145,45.851c-0.085,0.088-0.434,0.326-1.064,0.739c-0.631,0.435-1.544,0.675-2.763,0.741
			c-0.608,0.107-1.261,0.087-1.913-0.045c-1.088-0.195-1.96-0.761-2.589-1.696c-0.458-0.632-0.718-1.304-0.826-2.044
			c-0.089-0.566-0.153-1.111-0.153-1.654V28.733h6.613h0.132h0.106c0.043-0.021,0.066-0.043,0.088-0.064
			c0.5-0.328,0.891-0.762,1.195-1.284c0.066-0.131,0.109-0.24,0.197-0.371c-0.065,0.023-0.131,0.066-0.197,0.087
			c-0.043,0-0.109,0-0.196,0.022c-0.13,0-0.261,0-0.39,0.022l-7.134-0.022c-0.066-0.022-0.11-0.086-0.134-0.109
			c-0.064-0.062-0.084-0.13-0.128-0.216c-0.044-0.087-0.066-0.174-0.11-0.262c0-0.085-0.021-0.152-0.043-0.195v-3.392
			c0-0.067-0.021-0.11-0.021-0.177c-0.023-0.063-0.045-0.127-0.066-0.172c-0.02-0.064-0.043-0.087-0.085-0.153
			c-0.239-0.327-0.589-0.52-1.022-0.564c-0.808-0.174-1.59-0.262-2.394-0.282c-0.262,0-0.544-0.022-0.804-0.022
			c0.043,0.042,0.107,0.085,0.195,0.131c0.064,0.044,0.129,0.086,0.174,0.151c0.064,0.044,0.109,0.109,0.173,0.174
			c0.371,0.327,0.588,0.738,0.675,1.219c0.064,0.347,0.131,0.672,0.152,0.998v2.895h-1.545v1.588h1.545v13.159
			c0.021,0.152,0.021,0.307,0.021,0.436c0.024,0.152,0.024,0.282,0.024,0.436c0.021,0.13,0.041,0.26,0.041,0.413
			c0.066,0.631,0.241,1.283,0.48,1.893c0.303,0.827,0.783,1.521,1.412,2.109c0.588,0.544,1.283,0.958,2.047,1.239
			c0.783,0.262,1.564,0.436,2.369,0.502c0.719,0.108,1.414,0.108,2.11,0c0.261-0.023,0.544-0.066,0.806-0.109
			c0.718-0.131,1.413-0.326,2.064-0.588c0.546-0.238,0.957-0.609,1.199-1.108c0.217-0.479,0.26-1.001,0.107-1.523
			C211.364,45.677,211.255,45.765,211.145,45.851z"/>
		<path fill="#7F3F98" d="M185.545,27.145h-0.088c-1.893,0-3.35,0.458-4.395,1.37c-0.043,0.109-0.043,0.174,0,0.239
			c-0.043-0.021-0.109-0.107-0.195-0.239c-0.087-0.13-0.066-0.5,0.045-1.043c0-0.218-0.132-0.372-0.393-0.435h-0.044
			c-0.239-0.044-0.479-0.109-0.718-0.131c-1.023-0.154-2.109-0.239-3.263-0.239c0.325,0.153,0.566,0.303,0.696,0.434
			c0.021,0.044,0.064,0.087,0.088,0.13c0.326,0.479,0.521,1.088,0.586,1.872c0,0.065,0,0.174,0.021,0.24v19.621h3.025V33.866
			c0.369-3.154,1.674-4.786,3.936-4.872c0.24-0.023,0.456-0.023,0.674-0.023c1.154,0.152,2.132,0.435,2.893,0.894
			c0.088-0.501-0.02-1.241-0.324-2.177C187.371,27.318,186.521,27.145,185.545,27.145z"/>
		<path fill="#7F3F98" d="M234.914,32.496c-0.545-3.558-3.053-5.351-7.521-5.351c-2,0-3.543,0.501-4.61,1.523v-3.786v-2.112v-0.478
			c-0.021-0.065-0.043-0.107-0.063-0.174c0-0.063-0.023-0.13-0.045-0.173c-0.021-0.064-0.064-0.087-0.086-0.152
			c-0.219-0.327-0.566-0.521-1.003-0.566c-0.782-0.172-1.585-0.261-2.368-0.282c-0.234,0-0.487-0.017-0.723-0.022h-0.082
			c0.043,0.045,0.13,0.087,0.194,0.132c0.067,0.043,0.132,0.086,0.177,0.15c0.062,0.045,0.107,0.109,0.172,0.176
			c0.369,0.326,0.566,0.737,0.674,1.217c0.036,0.283,0.08,0.55,0.109,0.815v25.55h3.044V33.866c0.067-3.415,1.61-5.133,4.61-5.133
			c3.047,0,4.568,1.783,4.568,5.351c-0.347,6.438-0.479,10.311-0.367,11.637c0.105,1.349,0.305,2.065,0.566,2.196
			c0.086,0.196,0.28,0.413,0.586,0.609c0.305,0.22,0.695,0.348,1.152,0.437h1.152V34.084c0-0.564-0.045-1.088-0.107-1.588H234.914z"
			/>
		<path fill="#7F3F98" d="M252.736,27.145h-0.131h-0.195h-0.021c-0.523,0-1.046,0.023-1.525,0.064c-0.173,0-0.326,0.021-0.477,0.044
			c-0.22,0.043-0.394,0.064-0.589,0.086c-0.326,0.065-0.586,0.109-0.869,0.174c-0.654,0.109-1.088,0.435-1.306,0.935l-0.108,0.219
			c-0.35,1.021-0.393,1.477-0.131,1.326c0-0.023,0.023-0.043,0.064-0.066c0.741-0.544,1.719-0.87,2.938-1.043
			c0.15-0.044,0.304-0.044,0.477-0.066c0.479-0.065,0.979-0.086,1.525-0.086h0.021h0.195h0.131c3.001,0.021,4.502,1.806,4.502,5.351
			v0.871h-4.546c-5.112,0-7.679,2.304-7.679,6.938c0,4.698,2.566,7.071,7.679,7.071h0.044c1.957,0,3.457-0.523,4.459-1.524
			c0.02-0.021,0.043-0.043,0.043-0.043l0.371,1.131c0.738,0.369,1.629,0.501,2.696,0.437V34.084
			C260.306,29.472,257.781,27.145,252.736,27.145z M257.238,41.892c0,3.635-1.521,5.439-4.546,5.439
			c-3.11,0-4.653-1.805-4.653-5.439c0-3.545,1.543-5.328,4.653-5.328h4.546V41.892z"/>
		<path fill="#7F3F98" d="M160.334,27.145h-0.108h-0.194h-0.023c-0.547,0-1.068,0.023-1.565,0.064c-0.154,0-0.305,0.021-0.479,0.044
			c-0.196,0.043-0.393,0.064-0.567,0.086c-0.304,0.065-0.586,0.109-0.848,0.174c-0.651,0.109-1.087,0.435-1.325,0.935l-0.088,0.219
			c-0.37,1.021-0.436,1.477-0.174,1.326c0.041-0.023,0.065-0.043,0.065-0.066c0.761-0.544,1.739-0.87,2.937-1.043
			c0.15-0.044,0.325-0.044,0.479-0.066c0.497-0.065,1.019-0.086,1.565-0.086h0.023h0.194h0.108c3,0.021,4.502,1.806,4.502,5.351
			v0.871h-4.545c-5.113,0-7.681,2.304-7.681,6.938c0,4.698,2.567,7.071,7.681,7.071h0.043c1.957,0,3.436-0.523,4.48-1.524
			c0-0.021,0-0.043,0.021-0.043l0.369,1.131c0.741,0.369,1.632,0.501,2.697,0.437V34.084
			C167.902,29.472,165.379,27.145,160.334,27.145z M164.836,41.892c0,3.635-1.523,5.439-4.545,5.439
			c-3.09,0-4.634-1.805-4.634-5.439c0-3.545,1.544-5.328,4.634-5.328h4.545V41.892z"/>
		<path fill="#7F3F98" d="M97.514,27.145h-0.108h-0.217c-0.545,0-1.067,0.023-1.545,0.064c-0.173,0-0.325,0.021-0.501,0.044
			c-0.195,0.043-0.369,0.064-0.564,0.086c-0.306,0.065-0.586,0.109-0.848,0.174c-0.655,0.109-1.089,0.435-1.329,0.935l-0.087,0.219
			c-0.369,1.021-0.412,1.477-0.152,1.326c0-0.023,0.045-0.043,0.065-0.066c0.742-0.544,1.72-0.87,2.915-1.043
			c0.176-0.044,0.328-0.044,0.501-0.066c0.479-0.065,0.978-0.086,1.545-0.086h0.217h0.108c3.002,0.021,4.501,1.806,4.501,5.351
			v0.871h-4.544c-5.112,0-7.678,2.304-7.678,6.938c0,4.698,2.566,7.071,7.678,7.071h0.043c1.958,0,3.458-0.523,4.46-1.524
			c0.021-0.021,0.021-0.043,0.041-0.043l0.371,1.131c0.739,0.369,1.629,0.501,2.698,0.437V34.084
			C105.084,29.472,102.561,27.145,97.514,27.145z M102.015,41.892c0,3.635-1.521,5.439-4.544,5.439
			c-3.089,0-4.657-1.805-4.657-5.439c0-3.545,1.568-5.328,4.657-5.328h4.544V41.892z"/>
		<path fill="#7F3F98" d="M134.948,27.145c-3.109,0-5.155,1.086-6.068,3.262c-1.002-2.176-3.046-3.262-6.157-3.262
			c-1.978,0-3.546,0.522-4.678,1.609c0.111-0.565,0.111-1.109-0.019-1.631c-1.74-0.282-3.177-0.435-4.308-0.413
			c0.326,0.153,0.543,0.303,0.675,0.435c0.043,0.043,0.065,0.086,0.086,0.13c0.326,0.479,0.521,1.11,0.608,1.872v19.817h3.025
			V33.866c0.087-3.415,1.631-5.133,4.611-5.133c3.045,0,4.569,1.783,4.569,5.351v1.588c-0.282,5.48-0.37,8.833-0.282,10.049
			c0.109,1.349,0.282,2.065,0.564,2.196c0.087,0.196,0.282,0.413,0.588,0.609c0.305,0.218,0.696,0.348,1.153,0.437h1.13v-14.88
			c0-0.347,0-0.674-0.021-1c0.262-2.915,1.761-4.351,4.524-4.351c2.546,0,4.046,1.238,4.46,3.763c0.064,0.478,0.13,1.023,0.13,1.587
			c-0.37,6.438-0.5,10.312-0.392,11.638c0.109,1.349,0.305,2.065,0.543,2.196c0.111,0.196,0.307,0.413,0.611,0.609
			c0.305,0.218,0.672,0.348,1.151,0.437h1.152v-14.88c0-0.564-0.042-1.087-0.108-1.587
			C141.932,28.928,139.432,27.145,134.948,27.145z"/>
	</g>
	<g>
		<path fill-rule="evenodd" clip-rule="evenodd" fill="#CCBFDC" d="M36.463,2.868c0,0.152,0,0.303,0,0.451
			C36.394,3.262,36.394,2.926,36.463,2.868z"/>
		<path fill-rule="evenodd" clip-rule="evenodd" fill="#CCBFDC" d="M29.311,6.753c0,0.163,0,0.326,0,0.49
			C29.243,7.173,29.243,6.823,29.311,6.753z"/>
		<path fill-rule="evenodd" clip-rule="evenodd" fill="#9E7BB7" d="M25.996,9.982c0.069,0.083,0.069,0.449,0,0.532
			C25.996,10.337,25.996,10.161,25.996,9.982z"/>
		<path fill-rule="evenodd" clip-rule="evenodd" fill="#9E7BB7" d="M55.474,11.495c0,0.176,0,0.356,0,0.532
			C55.407,11.943,55.407,11.581,55.474,11.495z"/>
		<path fill-rule="evenodd" clip-rule="evenodd" fill="#CCBFDC" d="M63.57,12.927c0.066,0.057,0.066,0.393,0,0.449
			C63.57,13.228,63.57,13.075,63.57,12.927z"/>
		<path fill-rule="evenodd" clip-rule="evenodd" fill="#0C80B2" d="M35.727,17.465c-0.255,1.022-0.986,1.47-1.798,2.166
			c-0.441,0.379-0.938,0.976-1.268,1.066c-0.379,0.1-0.936,0.047-1.388,0.08c-1.543,0.114-3.347,0.233-3.435-1.35
			c-0.122-2.139,1.907-3.643,2.042-5.64c0.45,0.198,0.831,0.523,1.393,0.735c0.518,0.193,1.131,0.308,1.714,0.49
			c1.149,0.356,2.411,0.986,2.739,2.045C35.727,17.192,35.727,17.327,35.727,17.465z"/>
		<path fill-rule="evenodd" clip-rule="evenodd" fill="#0C80B2" d="M42.227,18.609c-0.318-0.455-0.75-0.888-0.613-1.595
			c0.188-0.959,1.517-1.6,2.616-1.963c1.233-0.406,2.521-0.667,3.191-1.266c0.221,1.902,1.834,3.154,2.042,5.109
			c0.221,2.063-1.511,2.021-3.394,1.881c-0.497-0.038-1.095,0.015-1.427-0.08c-0.341-0.1-0.69-0.608-0.982-0.861
			c-0.367-0.314-0.707-0.53-1.025-0.818C42.516,18.865,42.381,18.729,42.227,18.609z"/>
		<path fill-rule="evenodd" clip-rule="evenodd" fill="#9E7BB7" d="M56.087,16.893c0.065,0.11,0.065,0.5,0,0.612
			C56.087,17.3,56.087,17.097,56.087,16.893z"/>
		<path fill-rule="evenodd" clip-rule="evenodd" fill="#CCBFDC" d="M21.664,17.015c0,0.137,0,0.272,0,0.408
			C21.597,17.379,21.597,17.06,21.664,17.015z"/>
		<path fill-rule="evenodd" clip-rule="evenodd" fill="#CCBFDC" d="M35.727,17.057c0.067,0.043,0.067,0.363,0,0.408
			C35.727,17.327,35.727,17.192,35.727,17.057z"/>
		<path fill-rule="evenodd" clip-rule="evenodd" fill="#CCBFDC" d="M20.601,17.954c0.163-0.067,0.611-0.067,0.776,0
			C21.119,17.954,20.86,17.954,20.601,17.954z"/>
		<path fill-rule="evenodd" clip-rule="evenodd" fill="#CCBFDC" d="M56.371,17.954c0.18-0.067,0.641-0.067,0.819,0
			C56.918,17.954,56.642,17.954,56.371,17.954z"/>
		<path fill-rule="evenodd" clip-rule="evenodd" fill="#CCBFDC" d="M11.483,18.609c0,0.381,0,0.762,0,1.145
			C11.416,19.467,11.416,18.896,11.483,18.609z"/>
		<path fill-rule="evenodd" clip-rule="evenodd" fill="#9E7BB7" d="M15.042,18.69c0.191,0,0.383,0,0.572,0
			C15.518,18.757,15.137,18.757,15.042,18.69z"/>
		<path fill-rule="evenodd" clip-rule="evenodd" fill="#9E7BB7" d="M62.179,18.69c0.191,0,0.38,0,0.57,0
			C62.652,18.757,62.277,18.757,62.179,18.69z"/>
		<path fill-rule="evenodd" clip-rule="evenodd" fill="#CCBFDC" d="M66.306,18.935c0.067,0.071,0.067,0.42,0,0.491
			C66.306,19.262,66.306,19.099,66.306,18.935z"/>
		<path fill-rule="evenodd" clip-rule="evenodd" fill="#CCBFDC" d="M22.849,24.046c0.058-0.067,0.392-0.067,0.45,0
			C23.151,24.046,23.001,24.046,22.849,24.046z"/>
		<path fill-rule="evenodd" clip-rule="evenodd" fill="#CCBFDC" d="M54.042,24.046c0.06-0.067,0.394-0.067,0.45,0
			C54.343,24.046,54.193,24.046,54.042,24.046z"/>
		<path fill-rule="evenodd" clip-rule="evenodd" fill="#0C80B2" d="M23.299,24.046c1.427,0.13,1.346,1.771,1.228,3.352
			c-0.042,0.54-0.03,1.167-0.124,1.472c-0.142,0.464-1.076,1.266-1.431,1.677c-0.65,0.758-1.837,1.976-2.943,0.981
			c-1.369-1.228-1.376-4.076-2.535-5.519c2.222-0.216,3.09-1.788,5.355-1.962C23.001,24.046,23.151,24.046,23.299,24.046z"/>
		<path fill-rule="evenodd" clip-rule="evenodd" fill="#0C80B2" d="M54.492,24.046c2.246,0.181,3.127,1.726,5.315,1.962
			c-0.979,1.305-1.125,3.686-2.087,5.027c-0.304,0.427-0.763,0.96-1.552,0.859c-1.003-0.126-1.897-1.397-2.535-2.125
			c-0.234-0.266-0.632-0.678-0.694-0.856c-0.11-0.317-0.077-1.026-0.124-1.597c-0.124-1.494-0.219-3.155,1.226-3.271
			C54.193,24.046,54.343,24.046,54.492,24.046z"/>
		<path fill-rule="evenodd" clip-rule="evenodd" fill="#CCBFDC" d="M30.535,24.782c0.137-0.094,0.45-0.014,0.654-0.041
			c0,0.015,0,0.027,0,0.041C30.97,24.782,30.754,24.782,30.535,24.782z"/>
		<path fill-rule="evenodd" clip-rule="evenodd" fill="#9E7BB7" d="M31.189,24.782c0-0.014,0-0.026,0-0.041c0.176,0,0.354,0,0.533,0
			C31.624,24.835,31.354,24.755,31.189,24.782z"/>
		<path fill-rule="evenodd" clip-rule="evenodd" fill="#9E7BB7" d="M45.865,24.782c-0.122-0.026-0.351,0.053-0.407-0.041
			c0.137,0,0.272,0,0.407,0C45.865,24.755,45.865,24.768,45.865,24.782z"/>
		<path fill-rule="evenodd" clip-rule="evenodd" fill="#CCBFDC" d="M45.865,24.782c0-0.014,0-0.026,0-0.041
			c0.191,0.027,0.491-0.053,0.615,0.041C46.275,24.782,46.069,24.782,45.865,24.782z"/>
		<path fill-rule="evenodd" clip-rule="evenodd" fill="#9E7BB7" d="M28.982,24.822c0-0.014,0-0.025,0-0.041c0.135,0,0.271,0,0.409,0
			c0,0.015,0,0.026,0,0.041C29.254,24.822,29.117,24.822,28.982,24.822z"/>
		<path fill-rule="evenodd" clip-rule="evenodd" fill="#0C80B2" d="M29.391,24.822c0-0.014,0-0.025,0-0.041c0.178,0,0.354,0,0.53,0
			C29.826,24.875,29.554,24.797,29.391,24.822z"/>
		<path fill-rule="evenodd" clip-rule="evenodd" fill="#0C80B2" d="M47.134,24.782c0.176,0,0.354,0,0.53,0c0,0.015,0,0.026,0,0.041
			C47.5,24.797,47.23,24.875,47.134,24.782z"/>
		<path fill-rule="evenodd" clip-rule="evenodd" fill="#9E7BB7" d="M47.665,24.822c0-0.014,0-0.025,0-0.041c0.165,0,0.328,0,0.491,0
			c0,0.015,0,0.026,0,0.041C47.993,24.822,47.83,24.822,47.665,24.822z"/>
		<path fill-rule="evenodd" clip-rule="evenodd" fill="#CCBFDC" d="M48.156,24.822c0-0.014,0-0.025,0-0.041
			c0.124,0.026,0.353-0.053,0.411,0.041C48.428,24.822,48.291,24.822,48.156,24.822z"/>
		<path fill-rule="evenodd" clip-rule="evenodd" fill="#9E7BB7" d="M28.654,25.231c0.017,0,0.026,0,0.041,0c0,0.164,0,0.329,0,0.491
			c-0.015,0-0.024,0-0.041,0C28.654,25.56,28.654,25.395,28.654,25.231z"/>
		<path fill-rule="evenodd" clip-rule="evenodd" fill="#CCBFDC" d="M9.728,25.395c0.056-0.067,0.39-0.067,0.448,0
			C10.026,25.395,9.876,25.395,9.728,25.395z"/>
		<path fill-rule="evenodd" clip-rule="evenodd" fill="#CCBFDC" d="M67.575,25.395c0.069-0.067,0.42-0.067,0.491,0
			C67.903,25.395,67.74,25.395,67.575,25.395z"/>
		<path fill-rule="evenodd" clip-rule="evenodd" fill="#CCBFDC" d="M48.647,25.641c0.094,0.11,0.013,0.394,0.041,0.572
			c-0.015,0-0.028,0-0.041,0C48.647,26.022,48.647,25.832,48.647,25.641z"/>
		<path fill-rule="evenodd" clip-rule="evenodd" fill="#0C80B2" d="M28.654,25.722c0.017,0,0.026,0,0.041,0
			c-0.024,0.163,0.053,0.435-0.041,0.532C28.654,26.078,28.654,25.901,28.654,25.722z"/>
		<path fill-rule="evenodd" clip-rule="evenodd" fill="#9E7BB7" d="M48.647,26.212c0.013,0,0.026,0,0.041,0c0,0.22,0,0.438,0,0.653
			c-0.015,0-0.028,0-0.041,0C48.647,26.65,48.647,26.433,48.647,26.212z"/>
		<path fill-rule="evenodd" clip-rule="evenodd" fill="#0C80B2" d="M48.647,26.866c0.013,0,0.026,0,0.041,0c0,0.218,0,0.437,0,0.655
			C48.591,27.384,48.673,27.072,48.647,26.866z"/>
		<path fill-rule="evenodd" clip-rule="evenodd" fill="#CCBFDC" d="M28.654,26.907c0,0.205,0,0.41,0,0.614c-0.013,0-0.024,0-0.042,0
			C28.639,27.33,28.561,27.032,28.654,26.907z"/>
		<path fill-rule="evenodd" clip-rule="evenodd" fill="#9E7BB7" d="M28.613,27.521c0.017,0,0.028,0,0.042,0
			c-0.024,0.137,0.054,0.38-0.042,0.45C28.613,27.822,28.613,27.67,28.613,27.521z"/>
		<path fill-rule="evenodd" clip-rule="evenodd" fill="#0C80B2" d="M17.494,43.548c1.089-1.424,1.213-4.258,2.494-5.48
			c0.504-0.481,1.378-0.47,2.002-0.039c0.377,0.258,0.778,0.782,1.228,1.307c0.379,0.445,1.052,0.932,1.185,1.351
			c0.12,0.382,0.049,1.001,0.083,1.43c0.118,1.493,0.315,3.364-1.35,3.435C21.019,45.637,19.476,43.669,17.494,43.548z"/>
		<path fill-rule="evenodd" clip-rule="evenodd" fill="#0C80B2" d="M52.737,43.057c0.05-0.794,0.15-1.538,0.163-2.371
			c0.911-0.767,1.734-2.652,3.107-2.983c0.469-0.117,0.915,0.029,1.226,0.283c1.433,1.179,1.458,4.209,2.574,5.562
			c-2.018,0.15-3.469,2.053-5.603,2.002c-0.947-0.025-1.419-0.67-1.468-1.719C52.737,43.574,52.737,43.314,52.737,43.057z"/>
		<path fill-rule="evenodd" clip-rule="evenodd" fill="#0C80B2" d="M28.654,42.076c0.097,0.558,0.017,1.293,0.041,1.922
			c-0.015,0-0.024,0-0.041,0C28.654,43.355,28.654,42.714,28.654,42.076z"/>
		<path fill-rule="evenodd" clip-rule="evenodd" fill="#0C80B2" d="M48.688,42.076c0,0.203,0,0.408,0,0.613
			c-0.015,0-0.028,0-0.041,0C48.673,42.498,48.591,42.199,48.688,42.076z"/>
		<path fill-rule="evenodd" clip-rule="evenodd" fill="#9E7BB7" d="M48.647,42.689c0.013,0,0.026,0,0.041,0c0,0.217,0,0.434,0,0.654
			c-0.015,0-0.028,0-0.041,0C48.647,43.123,48.647,42.906,48.647,42.689z"/>
		<path fill-rule="evenodd" clip-rule="evenodd" fill="#CCBFDC" d="M52.737,43.057c0,0.257,0,0.517,0,0.774
			C52.666,43.667,52.666,43.22,52.737,43.057z"/>
		<path fill-rule="evenodd" clip-rule="evenodd" fill="#CCBFDC" d="M48.647,43.343c0.013,0,0.026,0,0.041,0
			c-0.028,0.176,0.053,0.46-0.041,0.571C48.647,43.724,48.647,43.533,48.647,43.343z"/>
		<path fill-rule="evenodd" clip-rule="evenodd" fill="#9E7BB7" d="M28.654,43.998c0.017,0,0.026,0,0.041,0c0,0.148,0,0.298,0,0.449
			C28.6,44.376,28.68,44.133,28.654,43.998z"/>
		<path fill-rule="evenodd" clip-rule="evenodd" fill="#0C80B2" d="M29.146,44.773c-0.124-0.026-0.351,0.053-0.409-0.039
			C28.862,44.758,29.089,44.679,29.146,44.773z"/>
		<path fill-rule="evenodd" clip-rule="evenodd" fill="#0C80B2" d="M47.91,44.773c0.07-0.094,0.312-0.015,0.45-0.039
			C48.289,44.826,48.049,44.747,47.91,44.773z"/>
		<path fill-rule="evenodd" clip-rule="evenodd" fill="#CCBFDC" d="M29.595,44.773c0.207,0,0.409,0,0.613,0c0,0.014,0,0.027,0,0.041
			C30.017,44.79,29.717,44.867,29.595,44.773z"/>
		<path fill-rule="evenodd" clip-rule="evenodd" fill="#9E7BB7" d="M30.208,44.814c0-0.014,0-0.027,0-0.041c0.205,0,0.411,0,0.613,0
			c0,0.014,0,0.027,0,0.041C30.619,44.814,30.413,44.814,30.208,44.814z"/>
		<path fill-rule="evenodd" clip-rule="evenodd" fill="#0C80B2" d="M30.822,44.814c0-0.014,0-0.027,0-0.041
			c0.193,0.025,0.489-0.055,0.615,0.041C31.23,44.814,31.024,44.814,30.822,44.814z"/>
		<path fill-rule="evenodd" clip-rule="evenodd" fill="#0C80B2" d="M45.621,44.814c0.096-0.096,0.367-0.016,0.532-0.041
			c0,0.014,0,0.027,0,0.041C45.976,44.814,45.799,44.814,45.621,44.814z"/>
		<path fill-rule="evenodd" clip-rule="evenodd" fill="#9E7BB7" d="M46.153,44.814c0-0.014,0-0.027,0-0.041c0.203,0,0.409,0,0.613,0
			c0,0.014,0,0.027,0,0.041C46.562,44.814,46.356,44.814,46.153,44.814z"/>
		<path fill-rule="evenodd" clip-rule="evenodd" fill="#CCBFDC" d="M46.767,44.814c0-0.014,0-0.027,0-0.041c0.205,0,0.407,0,0.613,0
			C47.254,44.867,46.958,44.79,46.767,44.814z"/>
		<path fill-rule="evenodd" clip-rule="evenodd" fill="#CCBFDC" d="M29.554,48.74c0.178-0.068,0.639-0.068,0.817,0
			C30.1,48.74,29.826,48.74,29.554,48.74z"/>
		<path fill-rule="evenodd" clip-rule="evenodd" fill="#CCBFDC" d="M46.93,48.74c0.178-0.068,0.64-0.068,0.817,0
			C47.474,48.74,47.202,48.74,46.93,48.74z"/>
		<path fill-rule="evenodd" clip-rule="evenodd" fill="#0C80B2" d="M30.372,48.74c0.705,0.172,1.596-0.051,2.29,0.162
			c0.394,0.122,1.106,0.855,1.596,1.268c0.784,0.663,2.092,1.871,1.146,3.023c-1.174,1.428-4.176,1.496-5.522,2.619
			c-0.071-1.023-0.613-1.898-1.144-2.821c-0.797-1.385-1.77-4.274,0.817-4.251C29.826,48.74,30.1,48.74,30.372,48.74z"/>
		<path fill-rule="evenodd" clip-rule="evenodd" fill="#0C80B2" d="M49.463,50.455c-0.197,2.256-1.734,3.171-2.042,5.316
			c-0.157,0.059-0.322-0.196-0.532-0.328c-0.602-0.371-1.421-0.537-2.247-0.777c-1.19-0.338-2.721-0.99-3.028-2.043
			c-0.092-0.324,0.002-0.798,0.206-1.145c0.287-0.492,0.79-0.874,1.346-1.351c0.413-0.348,1.046-1.093,1.435-1.226
			c0.695-0.238,1.618,0.035,2.329-0.162c0.272,0,0.544,0,0.817,0c0.932,0.072,1.635,0.382,1.716,1.309
			C49.463,50.184,49.463,50.319,49.463,50.455z"/>
		<path fill-rule="evenodd" clip-rule="evenodd" fill="#CCBFDC" d="M49.463,50.048c0.069,0.043,0.069,0.361,0,0.406
			C49.463,50.319,49.463,50.184,49.463,50.048z"/>
		<path fill-rule="evenodd" clip-rule="evenodd" fill="#9E7BB7" d="M15.409,51.558c0.083-0.067,0.446-0.067,0.531,0
			C15.764,51.558,15.585,51.558,15.409,51.558z"/>
		<path fill-rule="evenodd" clip-rule="evenodd" fill="#9E7BB7" d="M61.81,51.558c0.086-0.067,0.448-0.067,0.533,0
			C62.164,51.558,61.99,51.558,61.81,51.558z"/>
		<path fill-rule="evenodd" clip-rule="evenodd" fill="#9E7BB7" d="M21.42,52.173c-0.111,0.067-0.504,0.067-0.615,0
			C21.008,52.173,21.214,52.173,21.42,52.173z"/>
		<path fill-rule="evenodd" clip-rule="evenodd" fill="#9E7BB7" d="M56.948,52.173c-0.114,0.067-0.506,0.067-0.615,0
			C56.535,52.173,56.742,52.173,56.948,52.173z"/>
		<path fill-rule="evenodd" clip-rule="evenodd" fill="#CCBFDC" d="M21.869,52.458c0,0.272,0,0.545,0,0.816
			C21.799,53.099,21.799,52.635,21.869,52.458z"/>
		<path fill-rule="evenodd" clip-rule="evenodd" fill="#9E7BB7" d="M22.604,58.264c0.067,0.096,0.067,0.476,0,0.573
			C22.604,58.645,22.604,58.455,22.604,58.264z"/>
		<path fill-rule="evenodd" clip-rule="evenodd" fill="#CCBFDC" d="M51.263,59.572c0,0.164,0,0.327,0,0.491
			C51.195,59.995,51.195,59.641,51.263,59.572z"/>
		<path fill-rule="evenodd" clip-rule="evenodd" fill="#CCBFDC" d="M16.84,59.654c0.152,0,0.3,0,0.448,0
			C17.233,59.723,16.9,59.723,16.84,59.654z"/>
		<path fill-rule="evenodd" clip-rule="evenodd" fill="#CCBFDC" d="M60.503,59.654c0.15,0,0.298,0,0.45,0
			C60.895,59.723,60.557,59.723,60.503,59.654z"/>
		<path fill-rule="evenodd" clip-rule="evenodd" fill="#CCBFDC" d="M22.849,62.394c0.165,0,0.328,0,0.489,0
			C23.269,62.46,22.92,62.46,22.849,62.394z"/>
		<path fill-rule="evenodd" clip-rule="evenodd" fill="#CCBFDC" d="M54.411,62.394c0.163,0,0.326,0,0.491,0
			C54.829,62.46,54.48,62.46,54.411,62.394z"/>
		<path fill-rule="evenodd" clip-rule="evenodd" fill="#CCBFDC" d="M29.311,62.721c0,0.149,0,0.299,0,0.448
			C29.243,63.112,29.243,62.779,29.311,62.721z"/>
		<path fill-rule="evenodd" clip-rule="evenodd" fill="#804099" d="M30.902,4.177c1.352-1.158,2.842-2.173,4.824-2.697
			c-1.125,0.919-2.385,1.7-2.779,3.352c-0.067,0.124-0.067,0.529,0,0.654c0.173,0.878,0.771,1.337,1.39,1.839
			c1.483,1.204,3.311,2.115,4.457,3.516c0.658-0.981,1.678-1.643,2.698-2.371c1.136-0.813,2.531-1.581,2.902-3.025
			c0.068-0.097,0.068-0.474,0-0.571c-0.199-1.593-1.755-2.032-3.435-2.006c-0.049,1.828-1.54,2.103-2.292,3.189
			c-0.63-1.014-2.049-1.247-2.205-2.738c0-0.148,0-0.299,0-0.451c0.171-1.07,1.153-1.326,2.248-1.469c0.409,0,0.818,0,1.229,0
			c1.371,0.13,3.174,0.45,4.577,1.102c1.181,0.549,2.741,1.27,3.476,2.167c0.774,0.948,0.533,2.41-0.328,3.312
			c-0.212,0.209-0.414,0.433-0.611,0.654c-2.603,2.25-6.375,3.332-8.385,6.171c-0.189-0.216-0.341-0.471-0.529-0.693
			c-0.161-0.192-0.337-0.372-0.532-0.53c-2.162-1.847-5.087-2.931-7.316-4.703c-0.131-0.168-0.283-0.317-0.45-0.45
			c-0.251-0.323-0.478-0.669-0.53-1.187c0-0.164,0-0.327,0-0.49c0.12-0.941,0.617-1.508,1.103-2.084
			C30.593,4.521,30.756,4.358,30.902,4.177z"/>
		<path fill-rule="evenodd" clip-rule="evenodd" fill="#9E7BB7" d="M30.413,4.668c0.146-0.181,0.311-0.344,0.489-0.491
			C30.756,4.358,30.593,4.521,30.413,4.668z"/>
		<path fill-rule="evenodd" clip-rule="evenodd" fill="#9E7BB7" d="M29.841,8.43c0.167,0.133,0.319,0.282,0.45,0.45
			C30.122,8.747,29.974,8.595,29.841,8.43z"/>
		<path fill-rule="evenodd" clip-rule="evenodd" fill="#9E7BB7" d="M37.607,13.583c0.195,0.158,0.371,0.337,0.532,0.53
			C37.945,13.953,37.769,13.774,37.607,13.583z"/>
		<path fill-rule="evenodd" clip-rule="evenodd" fill="#CCBFDC" d="M47.054,8.634c0.197-0.221,0.399-0.445,0.611-0.654
			C47.492,8.23,47.284,8.445,47.054,8.634z"/>
		<path fill-rule="evenodd" clip-rule="evenodd" fill="#804099" d="M47.501,61.779c0.758,0.83,1.271,1.95,0.818,2.984
			c-0.377,0.864-1.442,1.419-2.25,1.883c-1.615,0.926-3.979,1.891-6.459,1.879c-0.189,0-0.379,0-0.57,0
			c-1.324-0.025-2.387-0.312-2.576-1.472c0-0.149,0-0.299,0-0.449c0.184-1.451,1.553-1.718,2.205-2.698
			c0.774,1.044,2.233,1.395,2.292,3.147c1.579,0.099,3.258-0.386,3.435-1.963c0.068-0.108,0.068-0.503,0-0.613
			c-0.399-1.383-1.751-2.216-2.822-2.984c-1.072-0.77-2.119-1.43-2.861-2.37c-0.728,1.014-1.828,1.707-2.985,2.493
			c-1.018,0.694-2.471,1.548-2.779,2.819c-0.067,0.141-0.067,0.561,0,0.698c0.143,0.812,0.6,1.304,1.022,1.839
			c0.133,0.166,0.281,0.317,0.45,0.449c0.371,0.352,0.952,0.711,1.226,1.021c-1.933-0.506-3.353-1.524-4.703-2.615
			c-0.174-0.209-0.364-0.4-0.572-0.573c-0.461-0.589-0.947-1.15-1.061-2.085c0-0.149,0-0.299,0-0.448
			c0.052-0.492,0.251-0.842,0.491-1.146c0.141-0.172,0.309-0.315,0.446-0.492c2.664-2.148,6.425-3.195,8.463-5.967
			c1.937,2.94,5.835,3.923,8.381,6.254C47.213,61.525,47.348,61.66,47.501,61.779z"/>
		<path fill-rule="evenodd" clip-rule="evenodd" fill="#9E7BB7" d="M47.093,61.371c0.154,0.119,0.289,0.254,0.409,0.408
			C47.348,61.66,47.213,61.525,47.093,61.371z"/>
		<path fill-rule="evenodd" clip-rule="evenodd" fill="#CCBFDC" d="M29.802,61.576c0.101-0.212,0.281-0.344,0.446-0.492
			C30.111,61.26,29.942,61.404,29.802,61.576z"/>
		<path fill-rule="evenodd" clip-rule="evenodd" fill="#CCBFDC" d="M30.372,65.254c0.208,0.173,0.397,0.364,0.572,0.573
			C30.737,65.654,30.544,65.463,30.372,65.254z"/>
		<path fill-rule="evenodd" clip-rule="evenodd" fill="#CCBFDC" d="M13.937,35.82c0.145-0.181,0.31-0.344,0.492-0.491
			C14.28,35.51,14.117,35.675,13.937,35.82z"/>
		<path fill-rule="evenodd" clip-rule="evenodd" fill="#804099" d="M6.865,39.868c0.669,0.464,1.237,1.164,2.333,1.104
			c1.348-0.076,2.169-1.56,2.861-2.535c0.673-0.954,1.288-1.915,1.878-2.616c0.18-0.145,0.343-0.31,0.492-0.491
			c0.103-0.087,0.251-0.128,0.326-0.245c-0.947-0.631-1.627-1.689-2.37-2.738c-0.696-0.983-1.419-2.191-2.411-2.701
			c-1.971-1.007-3.426,1.169-3.189,3.15c0,0.027,0,0.056,0,0.083c1.746,0.088,2.143,1.533,3.189,2.329
			c-1.028,0.618-1.545,2.549-3.313,2.167c-0.967-0.209-1.181-1.129-1.348-2.208c0-0.422,0-0.844,0-1.267
			c0.129-1.766,0.645-3.656,1.348-5.11c0.685-1.42,1.478-3.027,3.068-3.395c0.148,0,0.298,0,0.448,0
			c0.867,0.103,1.401,0.533,1.922,0.98c0.118,0.155,0.255,0.29,0.409,0.41c2.308,2.584,3.351,6.432,6.257,8.422
			c-0.28,0.145-0.51,0.337-0.739,0.53c-0.195,0.161-0.37,0.338-0.531,0.532c-0.994,1.134-1.81,2.602-2.696,4.172
			c-0.733,1.287-1.663,3.305-2.987,3.922c-1.131,0.531-2.471-0.152-3.188-0.857c-0.236-0.265-0.491-0.518-0.737-0.775
			c-1.028-1.289-1.986-2.646-2.453-4.499c0.37,0.38,0.666,0.834,1.022,1.226C6.572,39.613,6.711,39.748,6.865,39.868z"/>
		<path fill-rule="evenodd" clip-rule="evenodd" fill="#9E7BB7" d="M6.456,39.457c0.154,0.122,0.289,0.256,0.409,0.411
			C6.711,39.748,6.572,39.613,6.456,39.457z"/>
		<path fill-rule="evenodd" clip-rule="evenodd" fill="#CCBFDC" d="M7.887,42.73c0.246,0.258,0.5,0.511,0.737,0.775
			C8.354,43.271,8.097,43.024,7.887,42.73z"/>
		<path fill-rule="evenodd" clip-rule="evenodd" fill="#CCBFDC" d="M17.494,36.269c0.161-0.193,0.335-0.371,0.531-0.532
			C17.865,35.933,17.689,36.109,17.494,36.269z"/>
		<path fill-rule="evenodd" clip-rule="evenodd" fill="#9E7BB7" d="M12.098,26.375c0.154,0.122,0.289,0.256,0.409,0.41
			C12.353,26.665,12.216,26.53,12.098,26.375z"/>
		<path fill-rule="evenodd" clip-rule="evenodd" fill="#804099" d="M17.331,14.643c-1.451,0.341-3.004-0.053-3.148-1.305
			c-0.102-0.856,0.691-1.927,1.35-2.538c1.27-1.182,3.038-2.321,4.825-2.943c1.324-0.459,3.72-1.22,4.822-0.204
			c0.572,0.526,0.801,1.434,0.816,2.33c0,0.178,0,0.354,0,0.532c-0.193,3.186-1.401,5.358-1.633,8.503
			c-0.069,0.218-0.069,0.722,0,0.94c-0.015,0.356,0.083,0.597,0.124,0.901c-0.3,0.012-0.469-0.105-0.776-0.083
			c-0.236-0.069-0.752-0.069-0.983,0c-1.55,0.13-2.978,0.535-4.457,0.94c-1.404,0.385-2.919,0.992-4.457,0.899
			c-1.547-0.096-2.197-1.234-2.331-2.861c0-0.382,0-0.763,0-1.145c0.169-1.985,0.658-3.651,1.433-5.027
			c-0.259,2.158-0.306,5.135,2.126,5.107c0.096,0.067,0.477,0.067,0.572,0c1.81-0.098,3.212-0.601,4.988-0.736
			c0.259,0,0.518,0,0.776,0c0.153-0.03,0.197,0.05,0.328,0.042c0.056-0.099-0.079-0.357-0.042-0.574c0-0.136,0-0.271,0-0.408
			c0.079-1.651,0.493-2.967,0.615-4.579c0.067-0.315,0.067-0.912,0-1.228c-0.148-1.062-0.889-1.827-1.885-1.878
			c-1.104-0.061-2.18,0.846-2.696,1.47c0.077,0.349,0.392,0.531,0.53,0.9c0.332,0.874-0.143,1.95,0.081,2.943
			c-0.075,0.126-0.193-0.048-0.326,0C17.862,14.576,17.455,14.576,17.331,14.643z"/>
		<path fill-rule="evenodd" clip-rule="evenodd" fill="#804099" d="M54.042,20.776c-0.287-0.015-0.446,0.098-0.733,0.083
			c0.388-2.021-0.238-4.13-0.696-5.971c-0.574-2.294-2.072-7.44,1.227-7.767c0.802-0.079,1.68,0.206,2.531,0.451
			c2.265,0.649,4.372,1.778,5.728,3.107c0.144,0.181,0.307,0.345,0.487,0.489c0.399,0.515,0.85,0.978,0.984,1.76
			c0,0.148,0,0.301,0,0.449c-0.212,1.263-1.725,1.591-3.148,1.267c-0.126-0.066-0.533-0.066-0.656,0
			c-0.139-0.033-0.156,0.062-0.285,0.042c-0.002-0.098,0.069-0.122,0.04-0.246c0.067-0.165,0.067-0.612,0-0.778
			c-0.122-0.805-0.212-1.37,0.041-2.002c0.086-0.215,0.529-0.608,0.535-0.817c0.001-0.34-0.772-0.797-1.108-0.981
			c-0.497-0.273-1.063-0.536-1.511-0.53c-1.284,0.011-1.922,0.979-2.002,2.165c-0.067,0.086-0.067,0.448,0,0.532
			c0.06,1.765,0.549,3.107,0.613,4.866c0,0.205,0,0.407,0,0.612c0.015,0.191-0.013,0.34-0.042,0.491
			c0.152,0.029,0.174-0.071,0.325-0.042c0.271,0,0.547,0,0.819,0c1.77,0.139,3.174,0.643,4.989,0.736
			c0.098,0.067,0.473,0.067,0.57,0c1.536-0.073,2.078-1.137,2.209-2.616c0.069-0.286,0.069-0.857,0-1.145
			c-0.008-0.512-0.094-0.941-0.165-1.39c0.896,1.409,1.376,3.232,1.513,5.395c0,0.164,0,0.327,0,0.491
			c-0.068,1.791-0.669,3.093-2.37,3.189c-1.478,0.085-3.024-0.502-4.455-0.899c-1.498-0.416-2.938-0.822-4.417-0.94
			C54.822,20.707,54.289,20.707,54.042,20.776z"/>
		<path fill-rule="evenodd" clip-rule="evenodd" fill="#CCBFDC" d="M62.099,10.678c0.178,0.146,0.343,0.31,0.487,0.489
			C62.406,11.023,62.243,10.859,62.099,10.678z"/>
		<path fill-rule="evenodd" clip-rule="evenodd" fill="#CCBFDC" d="M42.227,18.609c0.154,0.119,0.289,0.256,0.407,0.408
			C42.484,18.898,42.347,18.761,42.227,18.609z"/>
		<path fill-rule="evenodd" clip-rule="evenodd" fill="#CCBFDC" d="M38.057,21.266c0.133-0.165,0.283-0.317,0.448-0.45
			C38.374,20.983,38.224,21.133,38.057,21.266z"/>
		<path fill-rule="evenodd" clip-rule="evenodd" fill="#CCBFDC" d="M36.914,22.371c0.186-0.221,0.39-0.426,0.613-0.614
			C37.337,21.978,37.133,22.181,36.914,22.371z"/>
		<path fill-rule="evenodd" clip-rule="evenodd" fill="#CCBFDC" d="M28.654,25.231c-0.024-0.286-0.028-0.544,0.328-0.449
			c0,0.015,0,0.026,0,0.041c-0.096,0-0.189,0-0.287,0c0,0.139,0,0.272,0,0.409C28.68,25.231,28.671,25.231,28.654,25.231z"/>
		<path fill-rule="evenodd" clip-rule="evenodd" fill="#CCBFDC" d="M25.547,33.736c0.189-0.223,0.394-0.427,0.613-0.613
			C25.975,33.344,25.769,33.546,25.547,33.736z"/>
		<path fill-rule="evenodd" clip-rule="evenodd" fill="#CCBFDC" d="M24.649,34.675c0.118-0.153,0.255-0.288,0.409-0.41
			C24.938,34.42,24.801,34.556,24.649,34.675z"/>
		<path fill-rule="evenodd" clip-rule="evenodd" fill="#CCBFDC" d="M24.568,34.796c0.37,0.338,0.724,0.692,1.06,1.066
			C25.26,35.524,24.904,35.168,24.568,34.796z"/>
		<path fill-rule="evenodd" clip-rule="evenodd" fill="#9E7BB7" d="M25.628,35.862c0.195,0.158,0.373,0.334,0.532,0.529
			C25.965,36.23,25.789,36.054,25.628,35.862z"/>
		<path fill-rule="evenodd" clip-rule="evenodd" fill="#CCBFDC" d="M36.3,46.613c0.167,0.133,0.317,0.284,0.45,0.45
			C36.582,46.929,36.432,46.778,36.3,46.613z"/>
		<path fill-rule="evenodd" clip-rule="evenodd" fill="#CCBFDC" d="M37.363,47.634c0.207,0.175,0.398,0.365,0.572,0.574
			C37.727,48.033,37.536,47.845,37.363,47.634z"/>
		<path fill-rule="evenodd" clip-rule="evenodd" fill="#CCBFDC" d="M38.385,48.615c0.12,0.059,0.165,0.189,0.283,0.244
			c0.139-0.068,0.195-0.215,0.33-0.285c-0.071,0.135-0.218,0.193-0.287,0.328C38.548,48.864,38.483,48.723,38.385,48.615z"/>
		<path fill-rule="evenodd" clip-rule="evenodd" fill="#CCBFDC" d="M39.572,48.044c0.199-0.235,0.416-0.453,0.65-0.655
			C40.024,47.625,39.805,47.845,39.572,48.044z"/>
		<path fill-rule="evenodd" clip-rule="evenodd" fill="#CCBFDC" d="M50.976,36.638c0.201-0.235,0.418-0.456,0.654-0.654
			C51.428,36.218,51.212,36.437,50.976,36.638z"/>
		<path fill-rule="evenodd" clip-rule="evenodd" fill="#CCBFDC" d="M52.202,35.371c0.135-0.17,0.285-0.317,0.45-0.45
			C52.521,35.088,52.369,35.238,52.202,35.371z"/>
		<path fill-rule="evenodd" clip-rule="evenodd" fill="#CCBFDC" d="M51.793,33.774c0.195,0.162,0.371,0.339,0.533,0.531
			C52.131,34.147,51.955,33.97,51.793,33.774z"/>
		<path fill-rule="evenodd" clip-rule="evenodd" fill="#CCBFDC" d="M50.608,32.551c0.193,0.158,0.372,0.337,0.531,0.531
			C50.946,32.922,50.77,32.745,50.608,32.551z"/>
		<path fill-rule="evenodd" clip-rule="evenodd" fill="#005892" d="M40.714,22.657c1.123,1.151,2.295,2.258,4.744,2.084
			c0.056,0.094,0.285,0.015,0.407,0.041c0.205,0,0.411,0,0.615,0c0.219,0,0.435,0,0.654,0c0.096,0.093,0.365,0.015,0.53,0.041
			c0.165,0,0.328,0,0.491,0c0.135,0,0.272,0,0.411,0c0.024,0,0.053,0,0.081,0c0,0.272,0,0.545,0,0.818c0,0.191,0,0.381,0,0.572
			c0,0.22,0,0.438,0,0.653c0.026,0.207-0.057,0.519,0.041,0.655c-0.186,2.501,0.692,3.94,1.92,5.03
			c0.161,0.194,0.337,0.372,0.531,0.531c0.223,0.228,0.399,0.499,0.654,0.693c0.161,0.196,0.337,0.373,0.533,0.531
			c0.141,0.146,0.234,0.339,0.411,0.451c0.028,0.113-0.084,0.082-0.084,0.164c-0.165,0.133-0.315,0.28-0.45,0.45
			c-0.227,0.167-0.375,0.412-0.572,0.613c-0.236,0.198-0.454,0.418-0.654,0.654c-1.341,1.231-2.529,2.62-2.288,5.438
			c-0.098,0.123-0.015,0.422-0.041,0.613c0,0.217,0,0.434,0,0.654c0,0.189,0,0.381,0,0.571c0,0.271,0,0.545,0,0.819
			c-0.098,0-0.193,0-0.287,0c-0.139,0.024-0.38-0.055-0.45,0.039c-0.178,0-0.354,0-0.53,0c-0.207,0-0.409,0-0.613,0
			s-0.411,0-0.613,0c-0.165,0.025-0.437-0.055-0.532,0.041c-2.876-0.221-4.062,1.252-5.398,2.575
			c-0.234,0.202-0.452,0.42-0.65,0.655c-0.186,0.182-0.418,0.318-0.574,0.529c-0.135,0.07-0.191,0.217-0.33,0.285
			c-0.118-0.055-0.163-0.186-0.283-0.244c-0.112-0.173-0.308-0.265-0.45-0.406c-0.174-0.209-0.366-0.399-0.572-0.574
			c-0.167-0.23-0.409-0.38-0.613-0.571c-0.133-0.166-0.283-0.317-0.45-0.45c-1.041-1.182-2.48-1.961-4.864-1.799
			c-0.125-0.096-0.422-0.016-0.615-0.041c-0.203,0-0.409,0-0.613,0s-0.407,0-0.613,0c-0.148,0-0.302,0-0.45,0
			c-0.056-0.094-0.283-0.015-0.409-0.039c-0.013,0-0.028,0-0.042,0c0-0.098,0-0.193,0-0.287c0-0.151,0-0.301,0-0.449
			c-0.024-0.629,0.056-1.364-0.041-1.922c0.244-2.969-1.127-4.324-2.494-5.685c-0.159-0.194-0.337-0.371-0.532-0.529
			c-0.335-0.374-0.69-0.728-1.06-1.066c0.013-0.052,0.069-0.061,0.081-0.121c0.152-0.119,0.289-0.255,0.409-0.41
			c0.202-0.14,0.322-0.359,0.489-0.53c0.221-0.189,0.427-0.392,0.613-0.613c1.251-1.285,2.657-2.414,2.453-5.151
			c0.096-0.07,0.017-0.313,0.042-0.45c0-0.204,0-0.409,0-0.614c0-0.217,0-0.435,0-0.653c0.094-0.097,0.017-0.369,0.041-0.532
			c0-0.162,0-0.327,0-0.491c0-0.137,0-0.27,0-0.409c0.098,0,0.191,0,0.287,0c0.135,0,0.271,0,0.409,0
			c0.163-0.025,0.435,0.052,0.53-0.041c0.203,0,0.411,0,0.613,0c0.219,0,0.435,0,0.654,0c0.165-0.026,0.435,0.054,0.533-0.041
			c2.741,0.222,3.932-1.108,5.192-2.37c0.219-0.189,0.424-0.393,0.613-0.614c0.172-0.168,0.392-0.292,0.53-0.49
			c0.167-0.133,0.317-0.283,0.448-0.45c0.098-0.011,0.077-0.143,0.206-0.12c0.051,0.084,0.118,0.151,0.205,0.203
			c0.135,0.167,0.283,0.315,0.45,0.449c0.193,0.254,0.467,0.433,0.695,0.653C40.262,22.237,40.48,22.454,40.714,22.657z
			 M35.89,42.076c1.106,0.477,2.033,1.342,2.822,1.839c1.604-1.409,3.477-2.547,6.42-2.618c0.146-2.932,1.25-4.906,2.698-6.54
			c-1.455-1.582-2.572-3.505-2.657-6.458c-2.978-0.107-4.909-1.253-6.544-2.7c-1.545,1.508-3.549,2.557-6.458,2.7
			c-0.103,2.952-1.254,4.851-2.657,6.498c1.425,1.627,2.554,3.551,2.657,6.5C33.679,41.37,34.842,41.621,35.89,42.076z"/>
		<path fill-rule="evenodd" clip-rule="evenodd" fill="#CCBFDC" d="M40.062,22.001c0.234,0.201,0.452,0.42,0.653,0.656
			C40.48,22.454,40.262,22.237,40.062,22.001z"/>
		<path fill-rule="evenodd" clip-rule="evenodd" fill="#CCBFDC" d="M38.916,20.899c0.167,0.132,0.317,0.282,0.45,0.449
			C39.199,21.214,39.051,21.065,38.916,20.899z"/>
		<path fill-rule="evenodd" clip-rule="evenodd" fill="#9E7BB7" d="M59.89,34.552c0.133-0.165,0.283-0.317,0.448-0.45
			C60.207,34.27,60.057,34.42,59.89,34.552z"/>
		<path fill-rule="evenodd" clip-rule="evenodd" fill="#9E7BB7" d="M60.296,36.269c-0.208-0.173-0.397-0.363-0.572-0.571
			C59.935,35.871,60.124,36.062,60.296,36.269z"/>
		<path fill-rule="evenodd" clip-rule="evenodd" fill="#9E7BB7" d="M64.999,43.586c0.154,0.119,0.291,0.255,0.409,0.411
			C65.254,43.876,65.119,43.742,64.999,43.586z"/>
		<path fill-rule="evenodd" clip-rule="evenodd" fill="#9E7BB7" d="M69.086,43.548c0.214-0.25,0.446-0.48,0.696-0.695
			C69.566,43.101,69.336,43.331,69.086,43.548z"/>
		<path fill-rule="evenodd" clip-rule="evenodd" fill="#CCBFDC" d="M63.445,34.796c0.178-0.188,0.339-0.394,0.532-0.571
			C63.827,34.441,63.653,34.641,63.445,34.796z"/>
		<path fill-rule="evenodd" clip-rule="evenodd" fill="#9E7BB7" d="M66.715,30.589c0.176-0.21,0.366-0.401,0.574-0.574
			C67.114,30.222,66.923,30.414,66.715,30.589z"/>
		<path fill-rule="evenodd" clip-rule="evenodd" fill="#CCBFDC" d="M68.066,35.003c0.117-0.155,0.255-0.29,0.407-0.411
			C68.355,34.747,68.217,34.882,68.066,35.003z"/>
		<path fill-rule="evenodd" clip-rule="evenodd" fill="#804099" d="M72.439,34.838c-0.039,1.015-0.168,1.791-0.693,2.249
			c-0.716,0.625-1.874,0.265-2.455-0.245c-0.651-0.575-0.831-1.392-1.511-1.635c0.079-0.083,0.193-0.135,0.287-0.204
			c0.15-0.121,0.289-0.257,0.407-0.411c0.572-0.793,1.099-1.628,2.452-1.634c0.225-0.938-0.191-2.545-0.819-3.065
			c-0.714-0.602-2.16-0.602-2.818,0.122c-0.208,0.172-0.397,0.364-0.574,0.574c-0.969,1.153-1.768,2.479-2.738,3.636
			c-0.193,0.177-0.354,0.384-0.532,0.571c-0.129,0.104-0.266,0.199-0.409,0.288c1.097,0.856,1.768,2.074,2.698,3.393
			c0.6,0.85,1.365,2.038,2.292,2.372c1.069,0.383,2.169-0.318,2.82-0.942c0.195-0.159,0.373-0.337,0.531-0.531
			c0.349-0.347,0.701-0.907,0.982-1.185c-0.495,1.918-1.487,3.337-2.576,4.662c-0.25,0.215-0.482,0.445-0.696,0.695
			c-0.686,0.848-2.724,1.495-3.679,0.449c-0.118-0.156-0.255-0.292-0.409-0.411c-1.783-2.224-2.863-5.147-4.703-7.317
			c-0.172-0.207-0.362-0.398-0.572-0.571c-0.232-0.162-0.433-0.356-0.695-0.491c0.289-0.218,0.588-0.421,0.86-0.655
			c0.167-0.132,0.317-0.283,0.448-0.45c1.127-1.262,2.033-2.952,3.067-4.661c0.957-1.58,2.154-3.671,4.17-4.047
			c0.165,0,0.328,0,0.491,0c0.539,0.06,1.046,0.355,1.431,0.776c0.722,0.799,1.343,2.053,1.92,3.31
			c0.619,1.345,0.889,2.901,1.021,4.375c0,0.138,0,0.275,0,0.41C72.439,34.458,72.439,34.648,72.439,34.838z"/>
		<path fill-rule="evenodd" clip-rule="evenodd" fill="#804099" d="M14.59,58.183c-1.243-1.293-2.366-3.265-3.022-5.439
			c-0.373-1.235-0.934-2.964-0.042-4.004c1.493-1.752,5.183-0.564,7.277-0.044c1.825,0.46,3.951,1.12,5.966,0.655
			c0.062,0.184-0.109,0.49-0.081,0.776c-0.067,0.247-0.067,0.776,0,1.022c0.122,1.494,0.527,2.92,0.939,4.417
			c0.502,1.811,1.71,4.902,0.083,6.172c-0.576,0.452-1.341,0.591-2.372,0.655c-0.161,0-0.324,0-0.489,0
			c-2.169-0.123-3.93-0.648-5.396-1.473c0.379-0.038,0.889,0.145,1.39,0.123c0.287,0.066,0.859,0.066,1.146,0
			c1.479-0.132,2.542-0.674,2.616-2.207c0.067-0.098,0.067-0.478,0-0.573c-0.092-1.815-0.596-3.218-0.735-4.989
			c0-0.271,0-0.544,0-0.816c-0.032-0.143,0.062-0.158,0.041-0.285c-0.086-0.084-0.304,0.049-0.489,0c-0.206,0-0.413,0-0.615,0
			c-1.76-0.066-3.099-0.555-4.865-0.615c-0.084-0.067-0.448-0.067-0.531,0c-1.165,0.086-2.1,0.683-2.166,1.923
			c-0.03,0.497,0.244,1.038,0.53,1.554c0.189,0.345,0.6,1.123,0.941,1.145c0.24,0.016,0.63-0.441,0.857-0.531
			c0.63-0.252,1.209-0.164,2.002-0.041c0.165,0.07,0.613,0.07,0.776,0c0.125,0.028,0.15-0.044,0.248-0.04
			c0.019,0.128-0.075,0.143-0.042,0.285c-0.067,0.122-0.067,0.53,0,0.652c0.325,1.425-0.003,2.94-1.269,3.149
			c-0.148,0-0.296,0-0.448,0c-0.782-0.131-1.241-0.582-1.759-0.982C14.937,58.49,14.773,58.329,14.59,58.183z"/>
		<path fill-rule="evenodd" clip-rule="evenodd" fill="#CCBFDC" d="M14.59,58.183c0.184,0.146,0.347,0.307,0.491,0.488
			C14.901,58.529,14.736,58.363,14.59,58.183z"/>
		<path fill-rule="evenodd" clip-rule="evenodd" fill="#9E7BB7" d="M62.627,58.714c0.172-0.209,0.365-0.4,0.572-0.573
			C63.027,58.349,62.833,58.54,62.627,58.714z"/>
		<path fill-rule="evenodd" clip-rule="evenodd" fill="#804099" d="M58.95,61.044c0.512-0.006,0.928-0.105,1.388-0.164
			c-1.427,0.889-3.251,1.381-5.436,1.514c-0.165,0-0.328,0-0.491,0c-1.75-0.076-3.009-0.644-3.148-2.331c0-0.164,0-0.327,0-0.491
			c0.3-3.607,2.216-6.215,1.716-10.221c2.389,0.512,4.903-0.402,7.118-0.939c2.313-0.564,6.621-1.408,6.662,1.799
			c0.007,0.765-0.264,1.635-0.493,2.412c-0.626,2.148-1.773,4.193-3.065,5.519c-0.207,0.173-0.399,0.364-0.572,0.573
			c-0.48,0.393-0.941,0.803-1.675,0.939c-0.152,0-0.3,0-0.45,0c-1.755-0.271-1.271-2.367-1.35-4.047
			c0.053-0.125,0.141,0.045,0.246,0c0.163,0.07,0.609,0.07,0.778,0c1.091-0.287,2.265-0.038,2.818,0.572
			c0.632-0.367,1.56-1.622,1.555-2.619c-0.004-1.114-0.917-1.971-2.207-2.002c-0.084-0.067-0.446-0.067-0.533,0
			c-1.76,0.066-3.097,0.557-4.862,0.615c-0.206,0-0.413,0-0.615,0c-0.184,0.019-0.306-0.021-0.45-0.039
			c0.191,2.066-0.57,3.863-0.696,5.885c-0.069,0.245-0.069,0.775,0,1.022c0.165,1.372,1.184,1.895,2.616,2.003
			C58.092,61.111,58.662,61.111,58.95,61.044z"/>
		<path fill-rule="evenodd" clip-rule="evenodd" fill="#CCBFDC" d="M32.948,4.832c0,0.218,0,0.436,0,0.654
			C32.88,5.361,32.88,4.956,32.948,4.832z"/>
		<path fill-rule="evenodd" clip-rule="evenodd" fill="#CCBFDC" d="M44.395,4.874c0.068,0.097,0.068,0.474,0,0.571
			C44.395,5.254,44.395,5.063,44.395,4.874z"/>
		<path fill-rule="evenodd" clip-rule="evenodd" fill="#CCBFDC" d="M22.279,11.208c0.067,0.316,0.067,0.913,0,1.228
			C22.279,12.026,22.279,11.618,22.279,11.208z"/>
		<path fill-rule="evenodd" clip-rule="evenodd" fill="#CCBFDC" d="M59.521,13.661c0.067,0.166,0.067,0.613,0,0.778
			C59.521,14.181,59.521,13.923,59.521,13.661z"/>
		<path fill-rule="evenodd" clip-rule="evenodd" fill="#CCBFDC" d="M17.331,14.643c0.124-0.066,0.531-0.066,0.652,0
			C17.766,14.643,17.546,14.643,17.331,14.643z"/>
		<path fill-rule="evenodd" clip-rule="evenodd" fill="#CCBFDC" d="M59.766,14.643c0.124-0.066,0.53-0.066,0.656,0
			C60.205,14.643,59.983,14.643,59.766,14.643z"/>
		<path fill-rule="evenodd" clip-rule="evenodd" fill="#CCBFDC" d="M64.958,14.93c0.069,0.288,0.069,0.859,0,1.145
			C64.958,15.692,64.958,15.309,64.958,14.93z"/>
		<path fill-rule="evenodd" clip-rule="evenodd" fill="#CCBFDC" d="M24.362,19.017c0,0.314,0,0.627,0,0.94
			C24.293,19.739,24.293,19.235,24.362,19.017z"/>
		<path fill-rule="evenodd" clip-rule="evenodd" fill="#CCBFDC" d="M22.727,20.776c0.231-0.069,0.747-0.069,0.983,0
			C23.38,20.776,23.054,20.776,22.727,20.776z"/>
		<path fill-rule="evenodd" clip-rule="evenodd" fill="#CCBFDC" d="M54.042,20.776c0.248-0.069,0.78-0.069,1.022,0
			C54.724,20.776,54.383,20.776,54.042,20.776z"/>
		<path fill-rule="evenodd" clip-rule="evenodd" fill="#CCBFDC" d="M24.688,50.127c0,0.341,0,0.682,0,1.022
			C24.621,50.904,24.621,50.375,24.688,50.127z"/>
		<path fill-rule="evenodd" clip-rule="evenodd" fill="#CCBFDC" d="M17.575,55.607c0.259,0,0.52,0,0.776,0
			C18.188,55.677,17.74,55.677,17.575,55.607z"/>
		<path fill-rule="evenodd" clip-rule="evenodd" fill="#CCBFDC" d="M59.398,55.607c0.259,0,0.518,0,0.778,0
			C60.008,55.677,59.562,55.677,59.398,55.607z"/>
		<path fill-rule="evenodd" clip-rule="evenodd" fill="#CCBFDC" d="M18.557,55.852c0,0.216,0,0.437,0,0.652
			C18.49,56.382,18.49,55.974,18.557,55.852z"/>
		<path fill-rule="evenodd" clip-rule="evenodd" fill="#CCBFDC" d="M55.187,58.019c0,0.34,0,0.68,0,1.022
			C55.118,58.794,55.118,58.264,55.187,58.019z"/>
		<path fill-rule="evenodd" clip-rule="evenodd" fill="#CCBFDC" d="M18.842,61.044c0.382,0,0.763,0,1.146,0
			C19.701,61.111,19.129,61.111,18.842,61.044z"/>
		<path fill-rule="evenodd" clip-rule="evenodd" fill="#CCBFDC" d="M57.803,61.044c0.383,0,0.765,0,1.147,0
			C58.662,61.111,58.092,61.111,57.803,61.044z"/>
		<path fill-rule="evenodd" clip-rule="evenodd" fill="#CCBFDC" d="M32.948,64.435c0,0.233,0,0.467,0,0.698
			C32.88,64.996,32.88,64.576,32.948,64.435z"/>
		<path fill-rule="evenodd" clip-rule="evenodd" fill="#CCBFDC" d="M44.395,64.477c0.068,0.11,0.068,0.505,0,0.613
			C44.395,64.886,44.395,64.681,44.395,64.477z"/>
	</g>
</g>
</svg>
